# xmcd
#
# Track frame offsets:
#	150
#	16650
#	32132
#	65960
#	86052
#	108125
#	134835
#	152662
#	173210
#	187405
#	205722
#	219100
#
# Disc length: 3368 seconds
#
# Revision: 1
# Processed by: cddbd v1.5.2PL0 Copyright (c) Steve Scherf et al.
# Submitted via: audiograbber 1.83.01
#
DISCID=a90d260c
DTITLE=Fruitcake - How to make it
DYEAR=1994
DGENRE=Progressive Rock
TTITLE0=How to make it?
TTITLE1=Inside our Place
TTITLE2=Fly Away
TTITLE3=Whims of Time
TTITLE4=Play my part
TTITLE5=Whatever
TTITLE6=Sky is Dark
TTITLE7=Stone of Light
TTITLE8=Earl Grey
TTITLE9=Mountain Queen
TTITLE10=The Inflated Man
TTITLE11=Never really learn
EXTD=
EXTT0=
EXTT1=
EXTT2=
EXTT3=
EXTT4=
EXTT5=
EXTT6=
EXTT7=
EXTT8=
EXTT9=
EXTT10=
EXTT11=
PLAYORDER=
